<svg xmlns="http://www.w3.org/2000/svg" width="256" height="256" xml:space="preserve"><path fill="#E0E0E0" d="m133.9 96.8 3.4-26.6c6.4 2 11 8 11 14.8v11.8h-14.4zM88.7 96.8V85c0-6.4 5.8-12.9 13.2-14.9l3.5 26.7H88.7z"/><path fill="#4A555F" d="M119.5 65.8c-10.8 0-19.5-8.8-19.5-19.5 0-10.8 8.8-19.5 19.5-19.5 10.8 0 19.5 8.8 19.5 19.5 0 10.8-8.7 19.5-19.5 19.5zm0-35.7c-8.9 0-16.2 7.3-16.2 16.2s7.3 16.2 16.2 16.2 16.2-7.3 16.2-16.2-7.3-16.2-16.2-16.2z"/><path fill="#FFD552" d="M119.5 59.2c-7.1 0-12.9-5.8-12.9-12.9s5.8-12.9 12.9-12.9c7.1 0 12.9 5.8 12.9 12.9 0 7.1-5.8 12.9-12.9 12.9z"/><path fill="#4A555F" d="M155.4 96.8H152v-3.9c0-2.5.1-5.2 0-7.7-.3-10.9-9-19.2-20.1-19.4-5-.1-10 0-14.9 0h-9.1c-2.3 0-4.7 0-6.9.4-5.5 1.1-10.4 4.6-13.2 9.5-3 5.1-2.8 11.4-2.7 17.4 0 1.3.1 2.5.1 3.7h-3.3c0-1.2 0-2.4-.1-3.6-.1-6.5-.3-13.2 3.1-19.1 3.3-5.7 9.1-9.8 15.5-11.1 2.5-.5 5.1-.5 7.6-.4h24.1c12.7.2 23 10.1 23.4 22.6.1 2.6.1 5.3 0 7.9-.1 1.2-.1 2.5-.1 3.7z"/><path fill="#4A555F" d="m108.9 97-4.4-34.5h6.9l6.8 8-7.6 13.2 1.6 12.8-3.3.5zm-.6-31.2 1.6 12.5 4.2-7.4-4.3-5.1h-1.5zM130.4 97l-3.3-.4 1.6-12.8-7.6-13.2 6.8-8h6.9L130.4 97zm-5.2-26.1 4.2 7.4 1.6-12.5h-1.6l-4.2 5.1zM117.9 74.8h3.3v22.1h-3.3z"/><path fill="#4A555F" d="m119.5 77.4-4.6-5.6 2.5-2.1 2.2 2.6 2.6-2.9 2.5 2.2z"/><circle fill="#4A555F" cx="124.6" cy="87.5" r="1.9"/><path fill="#4A555F" d="M155.4 98.5H81.8V16.3h73.5v82.2zm-70.3-3.3H152V19.6H85.1v75.6zM175.5 30.7h56.4V34h-56.4zM175.5 48.6h56.4v3.3h-56.4zM175.5 66.5h56.4v3.3h-56.4zM175.5 84.4h56.4v3.3h-56.4z"/><g><path fill="#4A555F" d="M83.7 123.6H97v3.3H83.7z"/></g><g><path fill="#4A555F" d="M109.5 123.6h122.4v3.3H109.5z"/></g><g><path fill="#4A555F" d="M109.5 142.5h122.4v3.3H109.5z"/></g><g><path fill="#4A555F" d="M83.7 163.8H97v3.3H83.7z"/></g><g><path fill="#4A555F" d="M109.5 163.8h122.4v3.3H109.5z"/></g><g><path fill="#4A555F" d="M109.5 182.8h122.4v3.3H109.5z"/></g><g><path fill="#4A555F" d="M83.7 204.1H97v3.3H83.7z"/></g><g><path fill="#4A555F" d="M109.5 204.1h122.4v3.3H109.5z"/></g><g><path fill="#4A555F" d="M109.5 223.1h122.4v3.3H109.5z"/></g><g><path fill="#4A555F" d="M41 135.9H11.4V25.7H41v110.2zm-26.3-3.3h23V29h-23v103.6z"/></g><g><path fill="#F68F6F" d="M18.5 32.9h15.3v95.9H18.5z"/></g><g><path fill="#4A555F" d="M30.8 247.3h-9.2l-.3-1.5c-6.6-34-9.9-68.8-9.9-103.4v-9.8H41v9.8c0 34.6-3.3 69.4-9.9 103.4l-.3 1.5zm-6.5-3.3H28c6.4-33.4 9.6-67.6 9.6-101.6v-6.5h-23v6.5c.1 34 3.3 68.2 9.7 101.6z"/></g><g><path fill="#F68F6F" d="M26.2 232.7c-5.1-29.8-7.7-60.1-7.7-90.3v-2.6h15.3v2.6c.1 30.2-2.5 60.5-7.6 90.3z"/></g><g><path fill="#4A555F" d="M8.7 102.1H5.4V18.9H41v8.5h-3.3v-5.2h-29z"/></g><g><path fill="#4A555F" d="M24.5 245.7h3.3V256h-3.3z"/></g><g><path fill="#4A555F" d="M250.6 254.1H64.8V0h185.8v254.1zm-182.5-3.3h179.2V3.3H68.1v247.5z"/></g></svg>